<?xml version="1.0" encoding="utf-8"?>
<!-- Generator: Adobe Illustrator 22.1.0, SVG Export Plug-In . SVG Version: 6.00 Build 0)  -->
<svg version="1.1" id="Ebene_1" xmlns="http://www.w3.org/2000/svg" xmlns:xlink="http://www.w3.org/1999/xlink" x="0px" y="0px"
	 viewBox="0 0 425.2 90.1" enable-background="new 0 0 425.2 90.1" xml:space="preserve">
<g>
	<path fill="#CC1236" d="M54.4,73.6c-5.5,0-8.3-1.7-9.2-5.7c-1.5-6.3-6.1-26.1-7.6-34.7c-0.3-1.6-0.4-1.6-0.7-1.6
		c-0.3,0-0.5,0-0.8,1.5c-0.5,2.3-1.2,5.4-1.9,8.7c-2,9.6-4.5,21.5-5.8,26c-1,4-4,5.7-9.8,5.7c-4.3,0-7.2-0.9-8.5-5.7
		C6.9,57.6,0,27.9,0,23.4C0,21.3,1.7,19,5.4,19c2.6,0,5.1,0.5,5.7,4.3c1.7,12.1,5.9,33.4,7.4,38.9c0.1,0.6,0.5,1.9,0.7,2
		c0,0,0.1,0,0.3,0c0,0,0.1,0,0.1,0c0.1-0.1,0.3-0.6,0.7-2c0.8-3.5,3.3-15.1,5.5-25.4c0.9-4.1,1.7-8.1,2.4-11.1
		c0.5-2.4,3-4.9,8.6-4.9c5.2,0,8.5,1.8,9.1,4.9c1.7,9.3,5.5,26.7,7.2,34.1c0.2,1,0.4,1.8,0.5,2.4c0.4,1.6,0.6,1.9,0.7,2
		c0,0,0,0,0.1,0c0.1,0,0.1,0,0.1,0c0.2-0.2,0.6-1.5,0.8-2.2c1.5-5.3,5.5-26.7,7.5-38.8c0.6-3.8,3.2-4.3,5.5-4.3
		c3.7,0,5.4,2.2,5.4,4.3c0,5.2-6.8,34-10.5,44.6C61.7,72.2,59.6,73.6,54.4,73.6L54.4,73.6z"/>
	<path fill="#CC1236" d="M128.1,73.6c-3.9,0-7.6-0.5-10-1.3c-1.8-0.7-2.8-2.1-2.8-4.1c0-2.3,1.5-4,3.7-4c0.3,0,0.5,0,0.8,0.1
		c2.6,0.4,5.1,0.7,8.6,0.7c6.5,0,9.1-1.6,9.1-5.6c0-3-1.6-5.9-9.8-11.7c-8.5-5.9-11.6-10-11.6-15.5c0-1.9,0.3-3.6,0.8-5.1h-16.2
		c-1.7,0-1.9,0.1-1.9,1.8v29.7c0,5.5,1.7,6.5,5,6.5h2c2.1,0,3.1,1.2,3.1,3.4c0,0.7,0,2.8-2,3.7c-1.1,0.5-4.1,1.1-6.7,1.1
		C90.1,73.4,88,67.9,88,59.1V29c0-1.7,0-1.9-1.8-1.9h-4.6c-2.3,0-3.5-1.5-3.5-4.4c0-3.5,1.9-4.2,3.5-4.2h4.5c1.9,0,1.9,0,1.9-1.7
		V7.8c0-4.3,4.1-4.3,5.4-4.3c1.3,0,5.4,0,5.4,4.2v9.2c0,1.6,0,1.7,1.9,1.7h33.2c5.5,0,9.3,0.5,11.4,1.5c2,1,2.2,2.5,2.2,3.6
		c0,2.8-1.9,4.4-4.7,4c-3-0.3-5.6-0.5-8.3-0.5c-6.4,0-7.6,1.7-7.6,4.8c0,2.8,3.7,5.9,9.5,9.9c8.6,5.7,11.8,10.3,11.8,17
		C148.2,68.7,141.6,73.6,128.1,73.6L128.1,73.6z"/>
	<path fill="#525F6B" d="M184.2,90.1c-6.8,0-14.7-0.7-14.7-5.8c0-2.3,1.1-3.7,2.9-3.7c1.6,0,3.3,0.2,5.1,0.4
		c1.9,0.2,3.8,0.4,5.8,0.4c11.2,0,16.4-2.2,16.4-7v-3.1c0-1.3,0-1.7-6-1.7c-20.9,0-25.9-4.8-25.9-24.3c0-19.6,6.8-26.8,25.3-26.8
		c11,0,17.1,0,17.1,5.9V72C210.2,90.1,192.6,90.1,184.2,90.1L184.2,90.1z M189.9,26.7c-8.6,0-11.3,2.5-11.3,18.4
		c0,14.9,1.5,16.6,14.7,16.6c6.3,0,6.3-0.3,6.3-5.4V32.2C199.7,27.4,199.1,26.7,189.9,26.7L189.9,26.7z"/>
	<path fill="#525F6B" d="M234.4,73.4c-9.8,0-11.7-5.4-11.7-14.2V4.1c0-4.1,3.9-4.1,5.1-4.1c1.3,0,5.3,0,5.3,4.1v54.7
		c0,5.2,1.1,6.7,4.9,6.7h1.9c1.9,0,2.9,1.1,2.9,3.3c0,1.8-0.6,3-1.9,3.5C239.9,72.8,236.9,73.4,234.4,73.4L234.4,73.4z"/>
	<path fill="#525F6B" d="M269.6,73.6c-15.4,0-22.5-8.4-22.5-26.3c0-20.2,6.8-28.8,22.6-28.8c15.1,0,22.2,8.3,22.2,26.2
		C291.8,70.3,279.9,73.6,269.6,73.6L269.6,73.6z M269.6,26.8c-9.8,0-11.7,3-11.7,19.1c0,17.6,3.4,19.4,11.7,19.4
		c9.1,0,11.4-1.9,11.4-19.4C281,29.4,278.3,26.8,269.6,26.8L269.6,26.8z"/>
	<path fill="#525F6B" d="M320.6,73.6c-5.5,0-10-0.3-13.1-1c-3.4-0.7-4.8-2.3-4.8-5.2V4.1c0-4.1,3.9-4.1,5.2-4.1c1.4,0,5.1,0,5.1,4.1
		v12.3c0,2.1,0.2,2.7,5.9,2.7c20,0,26,6.3,26,27C344.9,66.1,338.3,73.6,320.6,73.6L320.6,73.6z M319.3,27.3c-5.5,0-6.3,1.8-6.3,8.2
		v24c0,4.7,0.4,6,9.6,6c8.5,0,11.5-2.9,11.5-19.3C334,31.1,332.6,27.3,319.3,27.3L319.3,27.3z"/>
	<path fill="#525F6B" d="M373,73.4c-14.6,0-19.7-3.8-19.7-14.4c0-11.3,3.8-14.8,17.7-16.3l8.2-0.9c2.7-0.3,3.4-0.9,3.4-5.9
		c0-5.3-0.7-8.8-10.3-8.8c-3.3,0-7.6,0.5-10.7,1.2c-1.1,0.3-2.2,0.1-2.9-0.5c-0.6-0.5-1.3-1.5-1.3-3.4c0-1.4,0.6-2.5,1.8-3.3
		c3.1-1.9,9.4-2.6,13.8-2.6c14.9,0,19.7,4.3,19.7,17.7v30.6C392.7,72.9,384.2,73.4,373,73.4L373,73.4z M371.7,49.2
		c-6,0-7.6,1.9-7.6,8.7c0,6.9,1,8,7.8,8c9,0,10.7-0.5,10.7-6.5v-6c0-2.6-0.9-4.1-5.8-4.1H371.7L371.7,49.2z"/>
	<path fill="#525F6B" d="M416.8,73.4C407,73.4,405,68,405,59.2V4.1c0-4.1,3.9-4.1,5.1-4.1c1.3,0,5.3,0,5.3,4.1v54.7
		c0,5.2,1.1,6.7,4.9,6.7h1.9c1.9,0,2.9,1.1,2.9,3.3c0,1.8-0.6,3-1.9,3.5C422.3,72.8,419.2,73.4,416.8,73.4L416.8,73.4z"/>
</g>
</svg>
